<?xml version="1.0" encoding="UTF-8" standalone="no"?> <svg xmlns="http://www.w3.org/2000/svg" width="1024.000000pt" height="1024.000000pt" viewBox="0 0 1024.000000 1024.000000" preserveAspectRatio="xMidYMid meet"> <metadata> Created by potrace 1.16, written by Peter Selinger 2001-2019 </metadata> <g transform="translate(0.000000,1024.000000) scale(0.100000,-0.100000)" fill="#000000" stroke="none"> <path d="M2825 8729 c-157 -23 -313 -53 -370 -70 -69 -21 -252 -80 -270 -88 -11 -5 -38 -17 -60 -26 -90 -39 -213 -101 -263 -132 -29 -18 -55 -33 -57 -33 -8 0 -134 -88 -185 -129 -25 -20 -56 -45 -70 -56 -37 -29 -210 -203 -254 -255 -60 -71 -160 -217 -220 -324 -31 -54 -56 -100 -56 -102 0 -1 -15 -35 -33 -76 -106 -229 -164 -450 -207 -781 -13 -101 -13 -483 0 -584 42 -320 111 -586 211 -810 10 -24 19 -45 19 -48 0 -8 111 -231 139 -280 57 -99 142 -237 176 -286 57 -81 109 -153 115 -159 3 -3 19 -23 35 -45 30 -40 51 -67 70 -89 6 -6 28 -34 49 -61 108 -137 483 -523 656 -675 47 -41 92 -82 100 -90 14 -14 135 -120 190 -166 23 -20 96 -83 165 -143 17 -14 53 -44 80 -66 28 -22 61 -50 75 -61 35 -31 114 -96 136 -114 94 -75 120 -96 124 -100 3 -3 27 -24 55 -45 27 -22 55 -44 61 -50 6 -5 42 -35 79 -65 38 -30 89 -72 114 -94 25 -21 55 -45 66 -55 294 -243 291 -241 465 -395 19 -17 73 -65 120 -105 114 -101 502 -487 568 -565 107 -129 158 -175 229 -208 62 -29 76 -32 168 -32 84 1 108 4 150 24 77 36 106 62 232 204 172 193 529 544 673 662 19 16 37 31 40 34 3 3 39 35 80 70 41 36 77 67 80 70 3 3 70 59 150 125 80 66 150 124 156 130 6 5 28 24 49 40 21 17 43 35 49 40 6 6 34 28 61 50 28 22 75 61 105 86 30 25 64 53 75 62 40 31 150 122 155 127 3 3 28 23 55 45 48 39 165 135 175 145 3 3 32 28 65 55 77 64 107 90 170 145 28 25 67 58 86 74 168 144 623 588 729 713 30 35 62 72 70 81 31 33 177 218 215 272 22 30 42 57 45 60 9 8 114 168 170 260 54 89 192 357 205 400 4 14 18 48 30 75 23 53 72 189 85 240 96 364 114 492 114 805 0 219 -6 297 -35 465 -71 404 -211 732 -443 1040 -75 99 -299 325 -386 389 -36 26 -72 52 -80 59 -32 25 -157 103 -195 122 -22 11 -42 23 -45 26 -8 9 -130 65 -215 99 -68 27 -160 59 -290 99 -59 18 -205 46 -382 71 -107 15 -481 12 -584 -4 -147 -24 -312 -68 -404 -106 -11 -4 -42 -16 -70 -26 -64 -22 -254 -117 -323 -161 -29 -18 -57 -33 -62 -33 -6 0 -10 -4 -10 -8 0 -5 -11 -14 -24 -20 -22 -10 -194 -128 -206 -141 -3 -3 -42 -35 -88 -69 -137 -105 -269 -229 -347 -326 -22 -27 -50 -61 -62 -75 l-21 -26 -22 28 c-12 15 -27 33 -33 40 -7 6 -24 28 -39 49 -38 50 -175 181 -283 269 -334 274 -646 449 -973 545 -83 25 -118 33 -267 59 -90 16 -497 19 -600 4z m565 -808 c98 -28 195 -65 281 -107 38 -19 71 -34 73 -34 7 0 166 -99 231 -143 84 -57 248 -189 325 -262 131 -124 149 -142 231 -230 96 -103 122 -134 164 -190 40 -53 93 -107 130 -133 51 -34 149 -62 218 -62 149 0 239 59 412 272 65 79 306 326 400 409 22 19 78 64 125 99 47 36 87 67 90 70 3 3 50 35 105 70 149 96 349 194 450 220 17 5 57 16 90 26 76 23 410 26 520 6 377 -71 633 -198 860 -426 110 -110 152 -162 209 -259 70 -119 120 -239 157 -377 52 -197 53 -212 54 -500 0 -250 -3 -285 -23 -380 -33 -152 -74 -289 -112 -375 -10 -22 -21 -51 -25 -64 -20 -65 -187 -366 -247 -446 -5 -5 -47 -62 -95 -126 -138 -183 -223 -279 -433 -490 -222 -223 -302 -297 -549 -514 -25 -22 -48 -42 -51 -45 -3 -3 -32 -27 -65 -55 -33 -27 -71 -60 -85 -71 -32 -28 -257 -219 -290 -248 -14 -11 -52 -43 -85 -71 -33 -27 -73 -62 -90 -76 -48 -43 -138 -120 -165 -143 -87 -73 -156 -132 -160 -136 -3 -3 -36 -32 -75 -65 -38 -33 -88 -76 -110 -96 -22 -20 -92 -83 -155 -140 -153 -136 -218 -198 -453 -429 -109 -107 -200 -196 -202 -198 -1 -2 -77 70 -167 160 -153 152 -194 192 -389 373 -95 89 -242 222 -294 266 -22 19 -42 36 -45 39 -3 3 -39 34 -80 70 -41 36 -77 67 -80 70 -3 3 -21 18 -40 34 -37 30 -49 40 -250 212 -134 114 -144 123 -235 199 -90 75 -140 118 -250 214 -17 14 -59 51 -95 81 -36 30 -67 57 -70 60 -3 3 -43 39 -90 80 -47 41 -87 77 -90 80 -3 3 -42 38 -88 79 -110 98 -388 376 -482 482 -41 46 -77 86 -80 89 -3 3 -23 28 -45 55 -21 28 -42 52 -45 55 -5 4 -22 26 -72 95 -4 5 -18 24 -31 40 -14 17 -46 64 -72 105 -183 285 -294 536 -345 780 -40 189 -43 219 -44 445 -1 259 7 317 72 550 22 80 38 121 100 255 82 177 284 399 477 523 160 102 347 180 520 215 185 38 213 41 415 37 132 -2 180 -7 240 -24z"></path> </g> </svg> 